<svg width="18" height="12" viewBox="0 0 18 12" fill="none" xmlns="http://www.w3.org/2000/svg">
<path fill-rule="evenodd" clip-rule="evenodd" d="M4.70575 8.25392C3.62536 7.46228 2.73318 6.58109 2.19049 6C2.73318 5.41891 3.62536 4.53772 4.70575 3.74608C6.06532 2.74987 7.58234 2 9 2C10.4177 2 11.9347 2.74987 13.2942 3.74608C14.3746 4.53772 15.2668 5.41891 15.8095 6C15.2668 6.58108 14.3746 7.46228 13.2942 8.25392C11.9347 9.25013 10.4177 10 9 10C7.58234 10 6.06532 9.25013 4.70575 8.25392ZM9 0C6.94087 0 4.9963 1.05374 3.52365 2.13281C2.0264 3.2299 0.871165 4.46193 0.367845 5.03205C-0.122249 5.5872 -0.122249 6.4128 0.367845 6.96795C0.871165 7.53807 2.0264 8.7701 3.52365 9.86719C4.9963 10.9463 6.94087 12 9 12C11.0591 12 13.0037 10.9463 14.4763 9.86719C15.9736 8.7701 17.1288 7.53807 17.6322 6.96795C18.1222 6.4128 18.1222 5.5872 17.6322 5.03205C17.1288 4.46193 15.9736 3.2299 14.4763 2.13281C13.0037 1.05374 11.0591 0 9 0ZM9.00021 8C10.1247 8 11.0363 7.10457 11.0363 6C11.0363 4.89543 10.1247 4 9.00021 4C7.87569 4 6.96408 4.89543 6.96408 6C6.96408 7.10457 7.87569 8 9.00021 8Z" fill="#222222"/>
</svg>
